<svg xmlns="http://www.w3.org/2000/svg" xmlns:xlink="http://www.w3.org/1999/xlink" width="52.844" height="48.803" viewBox="0 0 52.844 48.803">
  <defs>
    <linearGradient id="linear-gradient" x1="0.244" y1="0.972" x2="0.752" y2="0.037" gradientUnits="objectBoundingBox">
      <stop offset="0" stop-color="#a0b3b8"/>
      <stop offset="1" stop-color="#fff"/>
    </linearGradient>
    <radialGradient id="radial-gradient" cx="0.239" cy="0.963" r="1.103" gradientTransform="translate(0.039) scale(0.922 1)" gradientUnits="objectBoundingBox">
      <stop offset="0.26" stop-color="#f1f4f6"/>
      <stop offset="0.58" stop-color="#e0e7eb"/>
      <stop offset="1" stop-color="#ced8e0"/>
    </radialGradient>
  </defs>
  <g id="Group_463" data-name="Group 463" transform="translate(-17043 -28)">
    <g id="Group_460" data-name="Group 460" transform="translate(17043 28)">
      <path id="Path_1288" data-name="Path 1288" d="M57.337,48.8A11.449,11.449,0,0,1,48.4,43.64L40.272,29.561a11.443,11.443,0,0,1,0-10.319L48.4,5.16A11.445,11.445,0,0,1,57.337,0H73.6a11.45,11.45,0,0,1,8.937,5.16l8.122,14.082a11.443,11.443,0,0,1,0,10.319L82.529,43.64A11.454,11.454,0,0,1,73.592,48.8Z" transform="translate(-39.043)" fill="url(#linear-gradient)"/>
      <path id="Path_1289" data-name="Path 1289" d="M58.842,49.476A10.7,10.7,0,0,1,50.6,44.715L42.462,30.633a10.708,10.708,0,0,1,0-9.526L50.581,7.015A10.694,10.694,0,0,1,58.828,2.25H75.09a10.694,10.694,0,0,1,8.247,4.765l8.133,14.093a10.708,10.708,0,0,1,0,9.526L83.351,44.715A10.7,10.7,0,0,1,75.1,49.476Z" transform="translate(-40.548 -1.47)" fill="url(#radial-gradient)"/>
    </g>
    <g id="Group_85" data-name="Group 85" transform="translate(17059 42)">
      <path id="Path_191" data-name="Path 191" d="M-341.441-2329.761a1.926,1.926,0,0,1,.779.845c.671,1.3,1.361,2.589,2.04,3.885a1.239,1.239,0,0,1-.24,1.636c-.282.291-.566.581-.861.86a.574.574,0,0,0-.162.669,7.927,7.927,0,0,0,1.732,2.773,15.264,15.264,0,0,0,3.466,3.041,4.627,4.627,0,0,0,1.174.528.556.556,0,0,0,.6-.165c.336-.348.674-.695,1.019-1.034a1.341,1.341,0,0,1,1.72-.227c1.286.751,2.564,1.516,3.849,2.268a1.634,1.634,0,0,1,.66.7v.471a1.6,1.6,0,0,1-.5.891c-.708.689-1.427,1.37-2.091,2.1a2.242,2.242,0,0,1-1.646.854h-1.02a6.934,6.934,0,0,0-.964-.094,9.112,9.112,0,0,1-3.4-1.223,23.017,23.017,0,0,1-6.123-4.951,19.146,19.146,0,0,1-3.908-6.052,7.363,7.363,0,0,1-.406-2.1c-.005-.063.012-.131-.04-.185v-1.413a2.172,2.172,0,0,1,.782-1.412c.7-.663,1.384-1.354,2.056-2.05a1.81,1.81,0,0,1,1.008-.621Z" transform="translate(345.758 2329.761)" fill="#416992"/>
    </g>
  </g>
</svg>
