<svg xmlns="http://www.w3.org/2000/svg" xmlns:xlink="http://www.w3.org/1999/xlink" width="55.912" height="51.636" viewBox="0 0 55.912 51.636">
  <defs>
    <linearGradient id="linear-gradient" x1="0.244" y1="0.972" x2="0.752" y2="0.037" gradientUnits="objectBoundingBox">
      <stop offset="0" stop-color="#a0b3b8"/>
      <stop offset="1" stop-color="#fff"/>
    </linearGradient>
    <radialGradient id="radial-gradient" cx="0.239" cy="0.963" r="1.103" gradientTransform="translate(0.039) scale(0.922 1)" gradientUnits="objectBoundingBox">
      <stop offset="0.26" stop-color="#f1f4f6"/>
      <stop offset="0.58" stop-color="#e0e7eb"/>
      <stop offset="1" stop-color="#ced8e0"/>
    </radialGradient>
  </defs>
  <g id="Group_459" data-name="Group 459" transform="translate(-16802 -121)">
    <g id="Group_454" data-name="Group 454" transform="translate(103.285 -239.001)">
      <path id="Path_1288" data-name="Path 1288" d="M58.4,51.636a12.113,12.113,0,0,1-9.455-5.463l-8.6-14.9a12.107,12.107,0,0,1,0-10.918l8.6-14.9A12.11,12.11,0,0,1,58.4,0H75.606a12.115,12.115,0,0,1,9.455,5.459l8.594,14.9a12.107,12.107,0,0,1,0,10.918l-8.6,14.9A12.119,12.119,0,0,1,75.6,51.636Z" transform="translate(16659.672 360.001)" fill="url(#linear-gradient)"/>
      <path id="Path_1289" data-name="Path 1289" d="M59.858,52.218a11.321,11.321,0,0,1-8.726-5.037l-8.6-14.9a11.33,11.33,0,0,1,0-10.079l8.59-14.911A11.315,11.315,0,0,1,59.843,2.25H77.049a11.315,11.315,0,0,1,8.726,5.041L94.38,22.2a11.33,11.33,0,0,1,0,10.079l-8.59,14.9a11.321,11.321,0,0,1-8.726,5.037Z" transform="translate(16658.213 358.576)" fill="url(#radial-gradient)"/>
    </g>
    <g id="Layer_2" data-name="Layer 2" transform="translate(16822 134)">
      <g id="Layer_1" data-name="Layer 1" transform="translate(0 0)">
        <path id="Path_1" data-name="Path 1" d="M4.057,19.248c0-1.6-.011-3.2.008-4.8,0-.332-.079-.443-.459-.434-.949.027-1.9.015-2.848.007-.6,0-.752-.149-.759-.692V9.6C0,9.1.188,8.935.738,8.93c.933-.008,1.864-.019,2.8.006.4.011.539-.07.534-.469a28.923,28.923,0,0,1,.059-3.3A5.832,5.832,0,0,1,10.068.024C11.35-.014,12.635.017,13.917.01c.464,0,.677.208.677.623,0,1.179-.005,2.359,0,3.539,0,.455-.237.637-.713.639-.9,0-1.793,0-2.689.04-.913.042-1.349.426-1.4,1.271S9.778,7.8,9.758,8.643c-.007.3.181.291.406.291h3.429c.685,0,.83.137.832.776V13.3c0,.607-.142.729-.819.731-1.108,0-2.215.017-3.322-.007-.41-.01-.527.09-.527.479.018,3.151.011,6.3.011,9.452,0,.788-.105.88-.978.881l-3.852,0c-.738,0-.879-.132-.879-.828Q4.055,21.624,4.057,19.248Z" transform="translate(0 -0.005)" fill="#416992"/>
      </g>
    </g>
  </g>
</svg>
