<svg xmlns="http://www.w3.org/2000/svg" xmlns:xlink="http://www.w3.org/1999/xlink" width="55.912" height="51.636" viewBox="0 0 55.912 51.636">
  <defs>
    <linearGradient id="linear-gradient" x1="0.244" y1="0.972" x2="0.752" y2="0.037" gradientUnits="objectBoundingBox">
      <stop offset="0" stop-color="#a0b3b8"/>
      <stop offset="1" stop-color="#fff"/>
    </linearGradient>
    <radialGradient id="radial-gradient" cx="0.239" cy="0.963" r="1.103" gradientTransform="translate(0.039) scale(0.922 1)" gradientUnits="objectBoundingBox">
      <stop offset="0.26" stop-color="#f1f4f6"/>
      <stop offset="0.58" stop-color="#e0e7eb"/>
      <stop offset="1" stop-color="#ced8e0"/>
    </radialGradient>
  </defs>
  <g id="Group_458" data-name="Group 458" transform="translate(-16802 -181)">
    <g id="Group_453" data-name="Group 453" transform="translate(103.285 -179.001)">
      <path id="Path_1288" data-name="Path 1288" d="M58.4,51.636a12.113,12.113,0,0,1-9.455-5.463l-8.6-14.9a12.107,12.107,0,0,1,0-10.918l8.6-14.9A12.11,12.11,0,0,1,58.4,0H75.606a12.115,12.115,0,0,1,9.455,5.459l8.594,14.9a12.107,12.107,0,0,1,0,10.918l-8.6,14.9A12.119,12.119,0,0,1,75.6,51.636Z" transform="translate(16659.672 360.001)" fill="url(#linear-gradient)"/>
      <path id="Path_1289" data-name="Path 1289" d="M59.858,52.218a11.321,11.321,0,0,1-8.726-5.037l-8.6-14.9a11.33,11.33,0,0,1,0-10.079l8.59-14.911A11.315,11.315,0,0,1,59.843,2.25H77.049a11.315,11.315,0,0,1,8.726,5.041L94.38,22.2a11.33,11.33,0,0,1,0,10.079l-8.59,14.9a11.321,11.321,0,0,1-8.726,5.037Z" transform="translate(16658.213 358.576)" fill="url(#radial-gradient)"/>
    </g>
    <g id="Layer_2" data-name="Layer 2" transform="translate(16818 194)">
      <g id="Layer_1" data-name="Layer 1" transform="translate(0)">
        <path id="Path_5" data-name="Path 5" d="M90.488,97.883c-.014-.176-.037-.354-.037-.531q0-7.811-.011-15.622c0-.39.075-.519.494-.51,1.365.031,2.725.02,4.089,0,.293,0,.4.063.382.372-.024.608-.007,1.218-.007,1.843.079-.024.121-.023.133-.042,1.4-2.183,3.484-2.745,5.905-2.521a6.25,6.25,0,0,1,1.971.493,4.888,4.888,0,0,1,2.764,3.541c.092.36.13.733.218,1.094.024.1-.077.314.175.293q0,5.624.008,11.249c0,.293-.058.353-.349.35-1.607-.018-3.218-.009-4.823-.009q0-4.233-.007-8.467a14.248,14.248,0,0,0-.1-1.552,2.42,2.42,0,0,0-2.314-2.48A2.711,2.711,0,0,0,95.836,87.5a5.728,5.728,0,0,0-.2,1.488q-.014,4.379-.022,8.76a.543.543,0,0,0,.038.136Z" transform="translate(-81.741 -73.066)" fill="#416992"/>
        <path id="Path_6" data-name="Path 6" d="M4,101.509l.014-9.977c0-2.076.011-4.153-.009-6.23,0-.364.087-.46.453-.454,1.444.022,2.889.015,4.333,0,.262,0,.4.013.4.35q-.02,8.056-.01,16.112a1.84,1.84,0,0,1-.019.2Z" transform="translate(-3.613 -76.691)" fill="#416992"/>
        <path id="Path_7" data-name="Path 7" d="M3.83,0c-.058.211.13.162.221.2A2.975,2.975,0,0,1,5.983,3.431,2.971,2.971,0,0,1,3.376,5.984,3.011,3.011,0,0,1,.234,4.109c-.04-.092,0-.277-.2-.217V2.145c.068.067.115.023.137-.038A3,3,0,0,1,2.118.165C2.187.141,2.275.1,2.172,0Z" transform="translate(-0.03)" fill="#416992"/>
      </g>
    </g>
  </g>
</svg>
