<svg xmlns="http://www.w3.org/2000/svg" xmlns:xlink="http://www.w3.org/1999/xlink" width="52.844" height="48.803" viewBox="0 0 52.844 48.803">
  <defs>
    <linearGradient id="linear-gradient" x1="0.244" y1="0.972" x2="0.752" y2="0.037" gradientUnits="objectBoundingBox">
      <stop offset="0" stop-color="#a0b3b8"/>
      <stop offset="1" stop-color="#fff"/>
    </linearGradient>
    <radialGradient id="radial-gradient" cx="0.239" cy="0.963" r="1.103" gradientTransform="translate(0.039) scale(0.922 1)" gradientUnits="objectBoundingBox">
      <stop offset="0.26" stop-color="#f1f4f6"/>
      <stop offset="0.58" stop-color="#e0e7eb"/>
      <stop offset="1" stop-color="#ced8e0"/>
    </radialGradient>
  </defs>
  <g id="Group_464" data-name="Group 464" transform="translate(-17046 -84)">
    <g id="Group_460" data-name="Group 460" transform="translate(17046 84)">
      <path id="Path_1288" data-name="Path 1288" d="M57.337,48.8A11.449,11.449,0,0,1,48.4,43.64L40.272,29.561a11.443,11.443,0,0,1,0-10.319L48.4,5.16A11.445,11.445,0,0,1,57.337,0H73.6a11.45,11.45,0,0,1,8.937,5.16l8.122,14.082a11.443,11.443,0,0,1,0,10.319L82.529,43.64A11.454,11.454,0,0,1,73.592,48.8Z" transform="translate(-39.043)" fill="url(#linear-gradient)"/>
      <path id="Path_1289" data-name="Path 1289" d="M58.842,49.476A10.7,10.7,0,0,1,50.6,44.715L42.462,30.633a10.708,10.708,0,0,1,0-9.526L50.581,7.015A10.694,10.694,0,0,1,58.828,2.25H75.09a10.694,10.694,0,0,1,8.247,4.765l8.133,14.093a10.708,10.708,0,0,1,0,9.526L83.351,44.715A10.7,10.7,0,0,1,75.1,49.476Z" transform="translate(-40.548 -1.47)" fill="url(#radial-gradient)"/>
    </g>
    <g id="Group_86" data-name="Group 86" transform="translate(17060 99)">
      <path id="Path_192" data-name="Path 192" d="M-167.475-2232.2v-11.147c.165-.11.295-.029.425.075,1.871,1.492,3.912,2.744,5.865,4.121,1.13.8,2.226,1.644,3.394,2.388a6.159,6.159,0,0,0,1.691.709,3.93,3.93,0,0,0,3.047-.664c1.181-.663,2.213-1.55,3.327-2.315,1.439-.989,2.884-1.967,4.321-2.958a17.531,17.531,0,0,0,1.621-1.217c.141-.123.279-.274.495-.138v11.147a2.169,2.169,0,0,1-2.415,1.924c-1.495.026-2.99.007-4.485.007H-164.3c-.267,0-.535,0-.8-.006A2.173,2.173,0,0,1-167.475-2232.2Z" transform="translate(167.475 2249.812)" fill="#416992"/>
      <path id="Path_193" data-name="Path 193" d="M-167.475-2308.082v-1.134c.364-1.55.931-2.019,2.543-2.022q9.539-.016,19.079,0c.063,0,.126,0,.189,0a2.176,2.176,0,0,1,2.374,1.927v1.134c-.125,1.707-1.313,2.647-2.566,3.527-2.367,1.663-4.759,3.29-7.117,4.966a8.635,8.635,0,0,1-1.264.733,2.546,2.546,0,0,1-2.274.011,19.16,19.16,0,0,1-2.881-1.877q-2.9-2.028-5.806-4.041a7.989,7.989,0,0,1-1.909-1.937A3.553,3.553,0,0,1-167.475-2308.082Z" transform="translate(167.475 2311.244)" fill="#416992"/>
    </g>
  </g>
</svg>
