<svg xmlns="http://www.w3.org/2000/svg" xmlns:xlink="http://www.w3.org/1999/xlink" width="55.912" height="51.636" viewBox="0 0 55.912 51.636">
  <defs>
    <linearGradient id="linear-gradient" x1="0.244" y1="0.972" x2="0.752" y2="0.037" gradientUnits="objectBoundingBox">
      <stop offset="0" stop-color="#a0b3b8"/>
      <stop offset="1" stop-color="#fff"/>
    </linearGradient>
    <radialGradient id="radial-gradient" cx="0.239" cy="0.963" r="1.103" gradientTransform="translate(0.039) scale(0.922 1)" gradientUnits="objectBoundingBox">
      <stop offset="0.26" stop-color="#f1f4f6"/>
      <stop offset="0.58" stop-color="#e0e7eb"/>
      <stop offset="1" stop-color="#ced8e0"/>
    </radialGradient>
  </defs>
  <g id="Group_461" data-name="Group 461" transform="translate(-16799 4)">
    <g id="Group_460" data-name="Group 460" transform="translate(100.285 -364.001)">
      <path id="Path_1288" data-name="Path 1288" d="M58.4,51.636a12.113,12.113,0,0,1-9.455-5.463l-8.6-14.9a12.107,12.107,0,0,1,0-10.918l8.6-14.9A12.11,12.11,0,0,1,58.4,0H75.606a12.115,12.115,0,0,1,9.455,5.459l8.594,14.9a12.107,12.107,0,0,1,0,10.918l-8.6,14.9A12.119,12.119,0,0,1,75.6,51.636Z" transform="translate(16659.672 360.001)" fill="url(#linear-gradient)"/>
      <path id="Path_1289" data-name="Path 1289" d="M59.858,52.218a11.321,11.321,0,0,1-8.726-5.037l-8.6-14.9a11.33,11.33,0,0,1,0-10.079l8.59-14.911A11.315,11.315,0,0,1,59.843,2.25H77.049a11.315,11.315,0,0,1,8.726,5.041L94.38,22.2a11.33,11.33,0,0,1,0,10.079l-8.59,14.9a11.321,11.321,0,0,1-8.726,5.037Z" transform="translate(16658.213 358.576)" fill="url(#radial-gradient)"/>
    </g>
    <g id="Layer_2" data-name="Layer 2" transform="translate(16816 10.367)">
      <g id="Layer_1" data-name="Layer 1" transform="translate(0 0)">
        <path id="Path_8" data-name="Path 8" d="M22.042,13.295a.854.854,0,0,1-.1-.549A10.622,10.622,0,0,0,10.015.851.679.679,0,0,1,9.548.779,5.763,5.763,0,0,0,7.852.1.463.463,0,0,1,7.719.068,11.039,11.039,0,0,0,4.993.086a.383.383,0,0,1-.081.009L4.847.1A6.4,6.4,0,0,0,.11,4.84.243.243,0,0,1,.1,4.885.423.423,0,0,1,.089,5,10.069,10.069,0,0,0,.08,7.7c.039.039.024.134.037.185A5.7,5.7,0,0,0,.723,9.419a.98.98,0,0,1,.127.674A10.632,10.632,0,0,0,12.714,21.93a.925.925,0,0,1,.632.119,5.8,5.8,0,0,0,2.676.786A6.2,6.2,0,0,0,21.876,19.8,6.164,6.164,0,0,0,22.042,13.295Zm-6.528,3.867a6.21,6.21,0,0,1-2.956,1.06,7.966,7.966,0,0,1-4.587-.655,4.112,4.112,0,0,1-2.257-2.794,1.277,1.277,0,0,1,.73-1.556,1.31,1.31,0,0,1,1.7.563,9.853,9.853,0,0,1,.462.916,2.514,2.514,0,0,0,2.136,1.479,3.908,3.908,0,0,0,2.588-.476,1.522,1.522,0,0,0-.107-2.784,8.955,8.955,0,0,0-2.179-.648A17.694,17.694,0,0,1,8.179,11.4a3.326,3.326,0,0,1-.459-6.1,7.446,7.446,0,0,1,3.8-.815A5.961,5.961,0,0,1,15.235,5.6,2.817,2.817,0,0,1,16.477,7.59,1.329,1.329,0,0,1,14.8,9.023a.911.911,0,0,1-.528-.313,3.749,3.749,0,0,1-.459-.658c-.86-1.839-2.777-1.738-4.081-1.288a1.774,1.774,0,0,0-.671.437A1.064,1.064,0,0,0,9.13,8.848a3.4,3.4,0,0,0,1.364.648c1.1.284,2.2.551,3.291.837a8.063,8.063,0,0,1,1.289.509A3.645,3.645,0,0,1,15.514,17.162Z" transform="translate(0.011 0.015)" fill="#416992"/>
      </g>
    </g>
  </g>
</svg>
