<svg xmlns="http://www.w3.org/2000/svg" xmlns:xlink="http://www.w3.org/1999/xlink" width="55.912" height="51.636" viewBox="0 0 55.912 51.636">
  <defs>
    <linearGradient id="linear-gradient" x1="0.244" y1="0.972" x2="0.752" y2="0.037" gradientUnits="objectBoundingBox">
      <stop offset="0" stop-color="#a0b3b8"/>
      <stop offset="1" stop-color="#fff"/>
    </linearGradient>
    <radialGradient id="radial-gradient" cx="0.239" cy="0.963" r="1.103" gradientTransform="translate(0.039) scale(0.922 1)" gradientUnits="objectBoundingBox">
      <stop offset="0.26" stop-color="#f1f4f6"/>
      <stop offset="0.58" stop-color="#e0e7eb"/>
      <stop offset="1" stop-color="#ced8e0"/>
    </radialGradient>
  </defs>
  <g id="Group_462" data-name="Group 462" transform="translate(-16802 -60)">
    <g id="Group_455" data-name="Group 455" transform="translate(103.285 -300.001)">
      <path id="Path_1288" data-name="Path 1288" d="M58.4,51.636a12.113,12.113,0,0,1-9.455-5.463l-8.6-14.9a12.107,12.107,0,0,1,0-10.918l8.6-14.9A12.11,12.11,0,0,1,58.4,0H75.606a12.115,12.115,0,0,1,9.455,5.459l8.594,14.9a12.107,12.107,0,0,1,0,10.918l-8.6,14.9A12.119,12.119,0,0,1,75.6,51.636Z" transform="translate(16659.672 360.001)" fill="url(#linear-gradient)"/>
      <path id="Path_1289" data-name="Path 1289" d="M59.858,52.218a11.321,11.321,0,0,1-8.726-5.037l-8.6-14.9a11.33,11.33,0,0,1,0-10.079l8.59-14.911A11.315,11.315,0,0,1,59.843,2.25H77.049a11.315,11.315,0,0,1,8.726,5.041L94.38,22.2a11.33,11.33,0,0,1,0,10.079l-8.59,14.9a11.321,11.321,0,0,1-8.726,5.037Z" transform="translate(16658.213 358.576)" fill="url(#radial-gradient)"/>
    </g>
    <g id="Layer_2" data-name="Layer 2" transform="translate(16815 73)">
      <g id="Layer_1" data-name="Layer 1" transform="translate(0 0)">
        <path id="Path_9" data-name="Path 9" d="M30.412,3.053a11,11,0,0,1-2.676,2.852.778.778,0,0,0-.346.732A18.049,18.049,0,0,1,23.8,17.768a16.547,16.547,0,0,1-10.642,6.714A17.78,17.78,0,0,1,.186,22.145c-.041-.026-.081-.054-.186-.124a12.785,12.785,0,0,0,9.215-2.585,8.378,8.378,0,0,1-1.433-.218,6.3,6.3,0,0,1-4.308-3.871c-.1-.234-.06-.284.192-.245a6.519,6.519,0,0,0,2.254-.074,1.983,1.983,0,0,0,.217-.075,6.325,6.325,0,0,1-3.574-2.227A6.2,6.2,0,0,1,1.187,8.748a6.3,6.3,0,0,0,2.79.747,6.345,6.345,0,0,1-2.59-3.833,6.234,6.234,0,0,1,.693-4.511A17.863,17.863,0,0,0,15,7.7a6.4,6.4,0,0,1,.945-4.961,6.251,6.251,0,0,1,9.542-.965.456.456,0,0,0,.491.148,15.323,15.323,0,0,0,1.876-.574A12.6,12.6,0,0,0,29.657.467a6.474,6.474,0,0,1-2.6,3.4,12.011,12.011,0,0,0,3.309-.863Z" transform="translate(0 0.004)" fill="#416992"/>
      </g>
    </g>
  </g>
</svg>
