<svg xmlns="http://www.w3.org/2000/svg" xmlns:xlink="http://www.w3.org/1999/xlink" width="55.912" height="51.636" viewBox="0 0 55.912 51.636">
  <defs>
    <linearGradient id="linear-gradient" x1="0.244" y1="0.972" x2="0.752" y2="0.037" gradientUnits="objectBoundingBox">
      <stop offset="0" stop-color="#a0b3b8"/>
      <stop offset="1" stop-color="#fff"/>
    </linearGradient>
    <radialGradient id="radial-gradient" cx="0.239" cy="0.963" r="1.103" gradientTransform="translate(0.039) scale(0.922 1)" gradientUnits="objectBoundingBox">
      <stop offset="0.26" stop-color="#f1f4f6"/>
      <stop offset="0.58" stop-color="#e0e7eb"/>
      <stop offset="1" stop-color="#ced8e0"/>
    </radialGradient>
  </defs>
  <g id="Group_451" data-name="Group 451" transform="translate(-16699 -360.001)">
    <g id="Group_457" data-name="Group 457">
      <path id="Path_1288" data-name="Path 1288" d="M58.4,51.636a12.113,12.113,0,0,1-9.455-5.463l-8.6-14.9a12.107,12.107,0,0,1,0-10.918l8.6-14.9A12.11,12.11,0,0,1,58.4,0H75.606a12.115,12.115,0,0,1,9.455,5.459l8.594,14.9a12.107,12.107,0,0,1,0,10.918l-8.6,14.9A12.119,12.119,0,0,1,75.6,51.636Z" transform="translate(16659.957 360.001)" fill="url(#linear-gradient)"/>
      <path id="Path_1289" data-name="Path 1289" d="M59.858,52.218a11.321,11.321,0,0,1-8.726-5.037l-8.6-14.9a11.33,11.33,0,0,1,0-10.079l8.59-14.911A11.315,11.315,0,0,1,59.843,2.25H77.049a11.315,11.315,0,0,1,8.726,5.041L94.38,22.2a11.33,11.33,0,0,1,0,10.079l-8.59,14.9a11.321,11.321,0,0,1-8.726,5.037Z" transform="translate(16658.654 358.751)" fill="url(#radial-gradient)"/>
      <g id="Layer_2" data-name="Layer 2" transform="translate(16710 373.001)">
        <g id="Layer_1" data-name="Layer 1" transform="translate(0 0)">
          <path id="Path_10" data-name="Path 10" d="M33.011,5.8a7.318,7.318,0,0,0-.745-2.7A4.943,4.943,0,0,0,27.972.389c-2.7-.234-5.4-.28-8.107-.34Q12.591-.113,5.332.385A5.015,5.015,0,0,0,.664,4.059a16.373,16.373,0,0,0-.57,4.4q-.187,3.983,0,7.969a19.579,19.579,0,0,0,.438,4,4.873,4.873,0,0,0,4.1,3.887,20.772,20.772,0,0,0,2.84.274c2.94.136,5.883.188,9.216.256,2.023-.031,4.436-.058,6.847-.152,1.632-.064,3.27-.072,4.89-.293a4.71,4.71,0,0,0,3.946-2.923,10.062,10.062,0,0,0,.724-3.358A81.877,81.877,0,0,0,33.011,5.8ZM31.186,17.513a11.849,11.849,0,0,1-.427,2.741,3.061,3.061,0,0,1-2.968,2.288c-2.872.206-5.749.273-8.627.334-3.941.083-7.877-.076-11.813-.225a13.748,13.748,0,0,1-2.64-.3,2.788,2.788,0,0,1-2.129-1.9,10.484,10.484,0,0,1-.475-2.893,87.274,87.274,0,0,1,0-10.272,10.557,10.557,0,0,1,.464-2.8A3.043,3.043,0,0,1,5.423,2.308c2.772-.234,5.553-.3,8.334-.338.963-.013,1.926,0,2.889,0,3.572,0,7.145.064,10.707.287a4.869,4.869,0,0,1,1.941.448,3.3,3.3,0,0,1,1.639,2.477,18.318,18.318,0,0,1,.312,3.309,85.7,85.7,0,0,1-.06,9.022Z" transform="translate(0 -0.009)" fill="#416992"/>
          <path id="Path_11" data-name="Path 11" d="M200.517,110.568c-2.4-1.314-4.806-2.636-7.217-3.941a1.341,1.341,0,0,0-2.065,1.246c0,1.287,0,2.575,0,3.863,0,1.309,0,2.618,0,3.928a1.34,1.34,0,0,0,2.013,1.239c2.43-1.291,4.85-2.6,7.275-3.9a1.355,1.355,0,0,0-.006-2.432Zm-7.31,4.152v-5.931l5.465,2.988Z" transform="translate(-178.812 -99.673)" fill="#416992"/>
        </g>
      </g>
    </g>
  </g>
</svg>
