<svg xmlns="http://www.w3.org/2000/svg" xmlns:xlink="http://www.w3.org/1999/xlink" width="55.912" height="51.636" viewBox="0 0 55.912 51.636">
  <defs>
    <linearGradient id="linear-gradient" x1="0.244" y1="0.972" x2="0.752" y2="0.037" gradientUnits="objectBoundingBox">
      <stop offset="0" stop-color="#a0b3b8"/>
      <stop offset="1" stop-color="#fff"/>
    </linearGradient>
    <radialGradient id="radial-gradient" cx="0.239" cy="0.963" r="1.103" gradientTransform="translate(0.039) scale(0.922 1)" gradientUnits="objectBoundingBox">
      <stop offset="0.26" stop-color="#f1f4f6"/>
      <stop offset="0.58" stop-color="#e0e7eb"/>
      <stop offset="1" stop-color="#ced8e0"/>
    </radialGradient>
  </defs>
  <g id="Group_456" data-name="Group 456" transform="translate(-16802 -242)">
    <g id="Group_452" data-name="Group 452" transform="translate(103.285 -118.001)">
      <path id="Path_1288" data-name="Path 1288" d="M58.4,51.636a12.113,12.113,0,0,1-9.455-5.463l-8.6-14.9a12.107,12.107,0,0,1,0-10.918l8.6-14.9A12.11,12.11,0,0,1,58.4,0H75.606a12.115,12.115,0,0,1,9.455,5.459l8.594,14.9a12.107,12.107,0,0,1,0,10.918l-8.6,14.9A12.119,12.119,0,0,1,75.6,51.636Z" transform="translate(16659.672 360.001)" fill="url(#linear-gradient)"/>
      <path id="Path_1289" data-name="Path 1289" d="M59.858,52.218a11.321,11.321,0,0,1-8.726-5.037l-8.6-14.9a11.33,11.33,0,0,1,0-10.079l8.59-14.911A11.315,11.315,0,0,1,59.843,2.25H77.049a11.315,11.315,0,0,1,8.726,5.041L94.38,22.2a11.33,11.33,0,0,1,0,10.079l-8.59,14.9a11.321,11.321,0,0,1-8.726,5.037Z" transform="translate(16658.213 358.576)" fill="url(#radial-gradient)"/>
    </g>
    <g id="Layer_2" data-name="Layer 2" transform="translate(16817 255)">
      <g id="Layer_1" data-name="Layer 1" transform="translate(0 0)">
        <path id="Path_2" data-name="Path 2" d="M24.814,8.037A11.348,11.348,0,0,0,24.525,5.3,6.349,6.349,0,0,0,20.44.617a10.659,10.659,0,0,0-3.5-.554C14.341-.023,11.745,0,9.145.029a16.645,16.645,0,0,0-3.86.322A6.355,6.355,0,0,0,.65,4.3a10.126,10.126,0,0,0-.6,3.486c-.088,2.4-.049,4.8-.045,7.2A25.742,25.742,0,0,0,.2,18.848a6.776,6.776,0,0,0,1.774,3.793A7.177,7.177,0,0,0,6.91,24.736c1.834.125,3.672.1,5.509.093.947,0,1.894.016,2.84,0a20.916,20.916,0,0,0,4.108-.285,6.383,6.383,0,0,0,4.942-4.274,10.77,10.77,0,0,0,.506-3.651Q24.831,12.326,24.814,8.037ZM22.58,16.774a10.069,10.069,0,0,1-.262,2.376A4.219,4.219,0,0,1,18.637,22.4,28.384,28.384,0,0,1,14.4,22.6c-.656.008-1.311,0-1.967,0-1.788,0-3.578.022-5.364-.1a5.522,5.522,0,0,1-2.737-.795,4.313,4.313,0,0,1-1.9-3.179,32.061,32.061,0,0,1-.178-4.209c-.019-1.988-.021-3.977.033-5.963a11.6,11.6,0,0,1,.256-2.6A4.19,4.19,0,0,1,6.088,2.484a21.094,21.094,0,0,1,3.727-.21c2.177-.022,4.355-.026,6.531.017a12.64,12.64,0,0,1,2.726.248,4.274,4.274,0,0,1,3.367,3.74,22.342,22.342,0,0,1,.17,3c.029,2.5.048,5-.028,7.5Z" transform="translate(0.009 -0.004)" fill="#416992"/>
        <path id="Path_3" data-name="Path 3" d="M130.875,124.71a6.34,6.34,0,1,0,6.367,6.331A6.356,6.356,0,0,0,130.875,124.71Zm0,10.445a4.105,4.105,0,1,1,2.922-1.2,4.114,4.114,0,0,1-2.922,1.2Z" transform="translate(-118.444 -118.626)" fill="#416992"/>
        <path id="Path_4" data-name="Path 4" d="M363.639,88.87a1.488,1.488,0,1,0,1.058.44A1.494,1.494,0,0,0,363.639,88.87Z" transform="translate(-344.561 -84.564)" fill="#416992"/>
      </g>
    </g>
  </g>
</svg>
