<svg xmlns="http://www.w3.org/2000/svg" xmlns:xlink="http://www.w3.org/1999/xlink" width="52.844" height="48.803" viewBox="0 0 52.844 48.803">
  <defs>
    <linearGradient id="linear-gradient" x1="0.244" y1="0.972" x2="0.752" y2="0.037" gradientUnits="objectBoundingBox">
      <stop offset="0" stop-color="#a0b3b8"/>
      <stop offset="1" stop-color="#fff"/>
    </linearGradient>
    <radialGradient id="radial-gradient" cx="0.239" cy="0.963" r="1.103" gradientTransform="translate(0.039) scale(0.922 1)" gradientUnits="objectBoundingBox">
      <stop offset="0.26" stop-color="#f1f4f6"/>
      <stop offset="0.58" stop-color="#e0e7eb"/>
      <stop offset="1" stop-color="#ced8e0"/>
    </radialGradient>
  </defs>
  <g id="Group_468" data-name="Group 468" transform="translate(-17143 -99)">
    <g id="Group_466" data-name="Group 466" transform="translate(100 71)">
      <g id="Group_460" data-name="Group 460" transform="translate(17043 28)">
        <path id="Path_1288" data-name="Path 1288" d="M57.337,48.8A11.449,11.449,0,0,1,48.4,43.64L40.272,29.561a11.443,11.443,0,0,1,0-10.319L48.4,5.16A11.445,11.445,0,0,1,57.337,0H73.6a11.45,11.45,0,0,1,8.937,5.16l8.122,14.082a11.443,11.443,0,0,1,0,10.319L82.529,43.64A11.454,11.454,0,0,1,73.592,48.8Z" transform="translate(-39.043)" fill="url(#linear-gradient)"/>
        <path id="Path_1289" data-name="Path 1289" d="M58.842,49.476A10.7,10.7,0,0,1,50.6,44.715L42.462,30.633a10.708,10.708,0,0,1,0-9.526L50.581,7.015A10.694,10.694,0,0,1,58.828,2.25H75.09a10.694,10.694,0,0,1,8.247,4.765l8.133,14.093a10.708,10.708,0,0,1,0,9.526L83.351,44.715A10.7,10.7,0,0,1,75.1,49.476Z" transform="translate(-40.548 -1.47)" fill="url(#radial-gradient)"/>
      </g>
    </g>
    <g id="Group_467" data-name="Group 467" transform="translate(12474.706 -3194.561)">
      <path id="Path_1290" data-name="Path 1290" d="M4835.609,3468.2a6.781,6.781,0,0,0,2.369.549,4.462,4.462,0,0,0,.795-.073,1.809,1.809,0,0,0,1.66-1.815.808.808,0,0,0-.412-.8,12.867,12.867,0,0,0-1.481-.8.831.831,0,0,0-1.1.22c-.279.29-.558.58-.831.874a.175.175,0,0,1-.23.047,8.772,8.772,0,0,1-2.707-1.753,4.553,4.553,0,0,1-1.071-1.55.189.189,0,0,1,.036-.236c.159-.167.3-.355.465-.511a.976.976,0,0,0,.28-1.1,14.045,14.045,0,0,0-.721-1.846.87.87,0,0,0-1.2-.413,2.488,2.488,0,0,0-1.447,3A9.217,9.217,0,0,0,4835.609,3468.2Z" transform="translate(-140.798 -145.734)" fill="#416992"/>
      <path id="Path_1291" data-name="Path 1291" d="M4685.291,3323.516a.393.393,0,0,1,.044.317q-.622,2.485-1.235,4.974c-.047.192-.047.194.141.139q2.454-.7,4.905-1.414a.386.386,0,0,1,.316.031,10.31,10.31,0,0,0,7.345.959,10.5,10.5,0,0,0-2.394-20.728,10.145,10.145,0,0,0-6.323,2.123,10.3,10.3,0,0,0-4.141,9.391A9.816,9.816,0,0,0,4685.291,3323.516Zm4.792-12.681a8.719,8.719,0,1,1,6.6,15.951,8.5,8.5,0,0,1-6.914-1.148.443.443,0,0,0-.41-.053c-.866.257-1.736.505-2.6.756-.043.013-.089.021-.162.037.246-.995.482-1.958.726-2.92a.336.336,0,0,0-.052-.3A8.71,8.71,0,0,1,4690.083,3310.835Z" transform="translate(0 0)" fill="#416992"/>
    </g>
  </g>
</svg>
